# xmcd
#
# Track frame offsets:
#	150
#	24117
#	47648
#	64820
#	88231
#	107558
#	128276
#	144914
#	164617
#	183055
#
# Disc length: 2805 seconds
#
# Revision: 1
# Processed by: cddbd v1.5.2PL0 Copyright (c) Steve Scherf et al.
# Submitted via: audiograbber 1.83.01
#
DISCID=750af30a
DTITLE=die spielwiese - eimer und schaufel
DYEAR=2006
DGENRE=Drum and Bass
TTITLE0=kopfkino
TTITLE1=jump up high
TTITLE2=5./6. sport
TTITLE3=brighter than it seems
TTITLE4=funk united
TTITLE5=tetris
TTITLE6=the bluegrass experience
TTITLE7=you don´t love me (no, no, no)
TTITLE8=tanzmusik
TTITLE9=welttraum
EXTD=
EXTT0=
EXTT1=
EXTT2=
EXTT3=
EXTT4=
EXTT5=
EXTT6=
EXTT7=
EXTT8=
EXTT9=
PLAYORDER=
